<svg width="30" height="30" viewBox="0 0 30 30" fill="none" xmlns="http://www.w3.org/2000/svg">
<g clip-path="url(#clip0_78_2232)">
<path fill-rule="evenodd" clip-rule="evenodd" d="M22.0711 9.94928C22.629 9.39139 22.629 8.48687 22.0711 7.92898C21.5132 7.37109 20.6087 7.37109 20.0508 7.92898L15 12.9797L9.94924 7.92898C9.39135 7.37109 8.48682 7.37109 7.92893 7.92898C7.37104 8.48687 7.37104 9.39139 7.92893 9.94928L12.9797 15L7.92893 20.0508C7.37102 20.6087 7.37105 21.5132 7.92893 22.0711C8.48682 22.629 9.39133 22.629 9.94924 22.0711L15 17.0204L20.0508 22.0711C20.6087 22.629 21.5132 22.629 22.0711 22.0711C22.629 21.5132 22.629 20.6087 22.0711 20.0508L17.0203 15L22.0711 9.94928Z" fill="#214145"/>
</g>
<defs>
<clipPath id="clip0_78_2232">
<rect width="20" height="20" fill="white" transform="translate(15 0.85791) rotate(45)"/>
</clipPath>
</defs>
</svg>
